<svg width="100" height="103" viewBox="0 0 100 103" fill="none" xmlns="http://www.w3.org/2000/svg">
<path d="M12.5 64.2944V70.6472H26.8313L6.25 91.567L10.6688 96.0584L31.25 75.1387V89.7056H37.5V64.2944H12.5Z" fill="white"/>
<path d="M93.75 96.0584H68.75V70.6472H93.75V96.0584ZM75 89.7056H87.5V77H75V89.7056Z" fill="white"/>
<path d="M62.5 64.2945H37.5V38.8833H62.5V64.2945ZM43.75 57.9417H56.25V45.2361H43.75V57.9417Z" fill="white"/>
<path d="M75 54.7652H68.75V48.4124H75C78.3152 48.4124 81.4946 47.0738 83.8388 44.691C86.183 42.3083 87.5 39.0766 87.5 35.7068C87.5 32.3371 86.183 29.1054 83.8388 26.7226C81.4946 24.3399 78.3152 23.0012 75 23.0012H37.5V16.6484H75C79.9728 16.6484 84.7419 18.6564 88.2583 22.2305C91.7746 25.8047 93.75 30.6522 93.75 35.7068C93.75 40.7614 91.7746 45.609 88.2583 49.1831C84.7419 52.7573 79.9728 54.7652 75 54.7652Z" fill="white"/>
<path d="M31.25 32.5304H6.25V7.11926H31.25V32.5304ZM12.5 26.1777H25V13.4721H12.5V26.1777Z" fill="white"/>
</svg>
