<svg height="512" viewBox="0 0 57 56" width="512" xmlns="http://www.w3.org/2000/svg"><g id="Page-1" fill="none" fill-rule="evenodd"><g id="033---Online-Phone" fill="rgb(0,0,0)" fill-rule="nonzero"><path id="Shape" d="m39.417 37.158c-1.0487814-.6569422-2.3846826-.6405219-3.417.042v-3.143c2.8887023.0522773 5.7633349.4160488 8.574 1.085-.5561981 1.3809575-1.2532123 2.7009281-2.08 3.939zm-24.469-13.195.963-.963h5.109c.066334 3.6672822.6659492 7.3053971 1.78 10.8-1.035388.3244811-2.0522419.7053841-3.046 1.141-2.6739365-2.7258285-4.4641378-6.1943654-5.137-9.953-.0597926-.374929.0632181-.7558536.331-1.025zm42.027-2.963h-8c-.066178-3.6636317-.6640849-7.2982319-1.775-10.79 1.6894954-.52245883 3.3236562-1.20941596 4.879-2.051 2.9680114 3.6438516 4.6846237 8.1461021 4.896 12.841zm-20.975 11.06v-9.06h10.98c-.0638437 3.4829169-.6365673 6.9377877-1.7 10.255-3.0391456-.7428585-6.1518038-1.1436803-9.28-1.195zm0-11.06v-9.033c3.1279498-.058589 6.2394353-.4681538 9.276-1.221 1.0644013 3.3167606 1.6384648 6.7712488 1.704 10.254zm0-11.057v-9.856c3.387.526 6.5 3.7 8.584 8.768-2.8137426.67106785-5.6918105 1.03585559-8.584 1.088zm-2-9.856v9.856c-2.8921895-.05214441-5.7702574-.41693215-8.584-1.088 2.084-5.07 5.196-8.242 8.584-8.768zm-9.275 10.66c3.0363794.7518967 6.147464 1.1611175 9.275 1.22v9.033h-10.98c.0654554-3.4825107.6398669-6.9367285 1.705-10.253zm9.275 12.253v9.06c-3.1267281.0530704-6.23772.4555707-9.275 1.2-1.0657782-3.3185188-1.6401972-6.7751398-1.705-10.26zm-10.522 12.681c.5065268 1.2734079 1.1158724 2.5034699 1.822 3.678-1.4429599-.8109456-2.7886656-1.7839065-4.011-2.9.7153333-.2866667 1.445-.546 2.189-.778zm5.454 5.229c-1.4995717-1.7018528-2.6898476-3.6529306-3.517-5.765 2.8140811-.67107 5.6924806-1.0358573 8.585-1.088v5.032l-1.963 1.963c-.2690441.2680019-.6499198.3913685-1.025.332-.7034942-.109533-1.3985082-.267916-2.08-.474zm20.048-17.91h7.986c-.2066119 4.6912596-1.9121098 9.1926386-4.866 12.843-1.5635355-.8397369-3.2044783-1.5265886-4.9-2.051 1.1129269-3.4921273 1.7125243-7.1274391 1.78-10.792zm1.739-16.371c-1.3470236.68964321-2.752523 1.25853581-4.2 1.7-1.007437-2.68607545-2.5596252-5.13471269-4.559-7.192 3.313721 1.1104941 6.3159386 2.99292115 8.759 5.492zm-22.678-5.5c-2.0022433 2.05886229-3.5559335 4.51044442-4.563 7.2-1.4485326-.44485233-2.8560658-1.0136202-4.207-1.7 2.439966-2.50964784 5.4479518-4.39538397 8.77-5.498zm-10.141 7.028c1.5635676.83966938 3.2045038 1.52651837 4.9 2.051-1.1129269 3.4921273-1.7125243 7.1274391-1.78 10.792h-3.108l.483-.482c1.0511646-1.0455999 1.2368562-2.6802676.447-3.935l-3.163-5.062c.6366-1.1864773 1.3800079-2.31246763 2.221-3.364zm30.07 37.965-4.612 9.224c-.2181688.4388424-.6854318.696574-1.173.647-7.07-.8-17.66-3.916-27.961-14.217s-13.417-20.891-14.217-27.961c-.05046463-.4877496.20752904-.9554877.647-1.173l9.224-4.612c.1645345-.08245164.3459628-.12558366.53-.126.4071503-.00043951.7855099.20992841 1 .556l5.739 9.183c.2910616.4651522.2217611 1.0697685-.167 1.457l-3.447 3.45c-.7136586.7194553-1.0451536 1.7339635-.894 2.736.7873047 4.4120192 2.950155 8.4618942 6.179 11.57.009.008.015.017.024.025.046.047.088.094.136.141 3.1319628 3.315611 7.2459648 5.5377189 11.736 6.339 1.0025146.1510629 2.0174226-.1808124 2.737-.895l3.449-3.445c.3880249-.3904725.9948691-.459838 1.461-.167l3.8 2.378v.005c.005 0 .012 0 .017.008l3.054 1.909c.021.013.041.027.063.039l2.24 1.4c.5200833.3193514.709092.983706.435 1.529zm-2.164-4.971-1.615-1.01c.9294268-1.4042911 1.7083888-2.9025529 2.324-4.47 1.449649.4444327 2.8582142 1.013212 4.21 1.7-1.4533506 1.4855014-3.1094016 2.758092-4.919 3.78z"/></g></g></svg>