<svg width="100" height="103" viewBox="0 0 100 103" fill="none" xmlns="http://www.w3.org/2000/svg">
<path d="M85.9375 11.8839H14.0625C12.334 11.8839 10.9375 13.3034 10.9375 15.0603V88.1175C10.9375 89.8744 12.334 91.2939 14.0625 91.2939H85.9375C87.666 91.2939 89.0625 89.8744 89.0625 88.1175V15.0603C89.0625 13.3034 87.666 11.8839 85.9375 11.8839ZM82.0312 84.147H17.9688V19.0308H82.0312V84.147Z" fill="white"/>
<path d="M31.3574 68.1756L50.1074 52.1943C50.4883 51.8767 50.4883 51.291 50.1074 50.9734L31.3574 35.0021C31.2442 34.9042 31.1058 34.8415 30.9586 34.8212C30.8113 34.801 30.6615 34.8241 30.5268 34.8878C30.3921 34.9516 30.2782 35.0533 30.1987 35.1809C30.1192 35.3084 30.0773 35.4565 30.0781 35.6076V41.8313C30.0781 42.0695 30.1758 42.2879 30.3613 42.4368L41.084 51.5888L30.3613 60.7408C30.2741 60.8151 30.2036 60.9076 30.1547 61.0121C30.1058 61.1166 30.0797 61.2306 30.0781 61.3463V67.5701C30.0781 68.2451 30.8496 68.6123 31.3574 68.1756ZM50.3906 67.5701C50.3906 68.0068 50.7227 68.3642 51.1231 68.3642H69.1895C69.5899 68.3642 69.9219 68.0068 69.9219 67.5701V62.8055C69.9219 62.3687 69.5899 62.0114 69.1895 62.0114H51.1231C50.7227 62.0114 50.3906 62.3687 50.3906 62.8055V67.5701Z" fill="white"/>
</svg>
