<svg width="100" height="103" viewBox="0 0 100 103" fill="none" xmlns="http://www.w3.org/2000/svg">
<path d="M75.0417 52.6265L77.1417 47.5993C78.125 45.2445 80.4792 43.957 82.7917 44.4483L83.2833 44.5796L85.9083 45.4351C88.5167 46.2822 90.5083 48.548 91.1542 51.394C92.6833 58.1619 90.8458 66.3993 85.6458 76.1106C80.45 85.805 74.7542 91.6326 68.5625 93.5978C67.3811 93.9699 66.1262 94.0322 64.9147 93.779C63.7032 93.5257 62.5744 92.9651 61.6333 92.1493L61.1167 91.6665L59.125 89.6336C58.2871 88.7567 57.7455 87.6315 57.5785 86.4209C57.4114 85.2103 57.6276 83.9771 58.1958 82.8997L58.4917 82.4041L61.5 77.9148C62.6792 76.1488 64.7083 75.3144 66.6542 75.7337L67.1833 75.8819L72.7333 77.7624C74.9854 76.0164 76.8698 73.8288 78.275 71.3291C79.49 69.2523 80.3309 66.972 80.7583 64.5951L80.9167 63.4516L76.2958 58.9962C75.5495 58.2575 75.019 57.3232 74.7631 56.2968C74.5072 55.2705 74.5358 54.1921 74.8458 53.1813L75.0417 52.6265L77.1417 47.5993L75.0458 52.6265H75.0417ZM82.2708 17.7073C84.7572 17.7073 87.1418 18.7112 88.9 20.4983C90.6581 22.2854 91.6458 24.7092 91.6458 27.2365L91.65 44.0883C90.5916 43.0726 89.3567 42.2655 88.0083 41.7081L87.175 41.399L85.3958 40.8187V27.2365C85.3958 26.394 85.0666 25.5861 84.4805 24.9904C83.8945 24.3947 83.0996 24.0601 82.2708 24.0601H17.7083C16.8795 24.0601 16.0847 24.3947 15.4986 24.9904C14.9126 25.5861 14.5833 26.394 14.5833 27.2365V75.9624C14.5833 77.7158 15.9833 79.1388 17.7083 79.1388L29.1625 79.1346L29.1667 67.4708C29.1667 65.6108 29.8549 63.8188 31.0945 62.4505C32.3341 61.0822 34.0346 60.2377 35.8583 60.0847L36.4583 60.0592H63.5208C65.3514 60.0594 67.115 60.7595 68.4613 62.0203C69.8075 63.2812 70.6379 65.0107 70.7875 66.8652L70.8125 67.4708L70.8083 72.6463L68.5 71.8627L67.8083 71.6595C66.746 71.392 65.6445 71.3245 64.5583 71.4604V67.4708C64.5582 67.2329 64.4791 67.0019 64.334 66.8152C64.1888 66.6285 63.9861 66.4969 63.7583 66.4417L63.5208 66.412H36.4583C36.2237 66.4124 35.996 66.4934 35.8122 66.6417C35.6284 66.7901 35.4993 66.9972 35.4458 67.2294L35.4167 67.4708L35.4125 79.1346H55.6375L55.0458 80.024L54.6375 80.6847C53.8042 82.1754 53.3792 83.8356 53.3583 85.4874H17.7083C15.2227 85.4874 12.8387 84.484 11.0807 82.6978C9.32265 80.9117 8.33444 78.489 8.33334 75.9624V27.2365C8.33334 24.7092 9.32106 22.2854 11.0792 20.4983C12.8374 18.7112 15.2219 17.7073 17.7083 17.7073H82.2708ZM50 30.4129C53.3152 30.4129 56.4946 31.7515 58.8388 34.1342C61.183 36.517 62.5 39.7487 62.5 43.1185C62.5 46.4882 61.183 49.7199 58.8388 52.1027C56.4946 54.4854 53.3152 55.8241 50 55.8241C46.6848 55.8241 43.5054 54.4854 41.1612 52.1027C38.817 49.7199 37.5 46.4882 37.5 43.1185C37.5 39.7487 38.817 36.517 41.1612 34.1342C43.5054 31.7515 46.6848 30.4129 50 30.4129ZM50 36.7657C48.3424 36.7657 46.7527 37.435 45.5806 38.6264C44.4085 39.8177 43.75 41.4336 43.75 43.1185C43.75 44.8033 44.4085 46.4192 45.5806 47.6106C46.7527 48.8019 48.3424 49.4713 50 49.4713C51.6576 49.4713 53.2473 48.8019 54.4194 47.6106C55.5915 46.4192 56.25 44.8033 56.25 43.1185C56.25 41.4336 55.5915 39.8177 54.4194 38.6264C53.2473 37.435 51.6576 36.7657 50 36.7657Z" fill="white"/>
</svg>
