<svg id="Layer_1" enable-background="new 0 0 510 510" height="512" viewBox="0 0 510 510" width="512" xmlns="http://www.w3.org/2000/svg"><g><path d="m300 210h-90v90h90zm-30 60h-30v-30h30z"/><path d="m120 330c-20.303 0-88.038 0-120 0v30h60v30h-60v30h60v30h30v60h30v-60h30v60h30c0-18.353 0-102.156 0-120h-60z"/><path d="m510 120v-30h-60v-30h-30v-60h-30v60h-30v-60h-30v120h60v60h120v-30h-60v-30z"/><path d="m360 210v-60h-60c0-3.041 0-145.643 0-150h-30v60h-30v-60h-30v150h-60v60c-21.888 0-130.458 0-150 0v30h60v30h-60v30h150v60h60v150h30v-60h30v60h30c0-6.491 0-143.506 0-150h60v-60h150v-30h-60v-30h60v-30c-3.395 0-145.608 0-150 0zm-30 120h-150v-150h150z"/><path d="m390 330v60h-60v120h30v-60h30v60h30v-60h30v-30h60v-30h-60v-30h60v-30c-18.353 0-102.156 0-120 0z"/><path d="m120 180v-60h60c0-20.303 0-88.038 0-120h-30v60h-30v-60h-30v60h-30v30h-60v30h60v30h-60v30z"/></g></svg>